<svg width="92" height="112" viewBox="0 0 92 112" fill="none" xmlns="http://www.w3.org/2000/svg">
<path d="M50.8094 0.632117H40.6436C39.9418 0.632117 39.3728 1.19813 39.3728 1.89635V12.0102C39.3728 12.7085 39.9418 13.2745 40.6436 13.2745H50.8094C51.5112 13.2745 52.0801 12.7085 52.0801 12.0102V1.89635C52.0801 1.19813 51.5112 0.632117 50.8094 0.632117Z" fill="black"/>
<path d="M66.0581 0.632117H55.8923C55.1905 0.632117 54.6216 1.19813 54.6216 1.89635V12.0102C54.6216 12.7085 55.1905 13.2745 55.8923 13.2745H66.0581C66.7599 13.2745 67.3288 12.7085 67.3288 12.0102V1.89635C67.3288 1.19813 66.7599 0.632117 66.0581 0.632117Z" fill="black"/>
<path d="M35.5607 15.8029H25.3948C24.693 15.8029 24.1241 16.3689 24.1241 17.0672V27.1811C24.1241 27.8793 24.693 28.4453 25.3948 28.4453H35.5607C36.2625 28.4453 36.8314 27.8793 36.8314 27.1811V17.0672C36.8314 16.3689 36.2625 15.8029 35.5607 15.8029Z" fill="black"/>
<path d="M50.8094 15.8029H40.6436C39.9418 15.8029 39.3728 16.3689 39.3728 17.0672V27.1811C39.3728 27.8793 39.9418 28.4453 40.6436 28.4453H50.8094C51.5112 28.4453 52.0801 27.8793 52.0801 27.1811V17.0672C52.0801 16.3689 51.5112 15.8029 50.8094 15.8029Z" fill="black"/>
<path d="M35.5607 30.9738H25.3948C24.693 30.9738 24.1241 31.5398 24.1241 32.238V42.3519C24.1241 43.0501 24.693 43.6161 25.3948 43.6161H35.5607C36.2625 43.6161 36.8314 43.0501 36.8314 42.3519V32.238C36.8314 31.5398 36.2625 30.9738 35.5607 30.9738Z" fill="black"/>
<path d="M50.8094 30.9738H40.6436C39.9418 30.9738 39.3728 31.5398 39.3728 32.238V42.3519C39.3728 43.0501 39.9418 43.6161 40.6436 43.6161H50.8094C51.5112 43.6161 52.0801 43.0501 52.0801 42.3519V32.238C52.0801 31.5398 51.5112 30.9738 50.8094 30.9738Z" fill="black"/>
<path d="M66.0581 30.9738H55.8923C55.1905 30.9738 54.6216 31.5398 54.6216 32.238V42.3519C54.6216 43.0501 55.1905 43.6161 55.8923 43.6161H66.0581C66.7599 43.6161 67.3288 43.0501 67.3288 42.3519V32.238C67.3288 31.5398 66.7599 30.9738 66.0581 30.9738Z" fill="black"/>
<path d="M35.5607 46.1446H25.3948C24.693 46.1446 24.1241 46.7106 24.1241 47.4088V57.5227C24.1241 58.2209 24.693 58.7869 25.3948 58.7869H35.5607C36.2625 58.7869 36.8314 58.2209 36.8314 57.5227V47.4088C36.8314 46.7106 36.2625 46.1446 35.5607 46.1446Z" fill="black"/>
<path d="M50.8094 46.1446H40.6436C39.9418 46.1446 39.3728 46.7106 39.3728 47.4088V57.5227C39.3728 58.2209 39.9418 58.7869 40.6436 58.7869H50.8094C51.5112 58.7869 52.0801 58.2209 52.0801 57.5227V47.4088C52.0801 46.7106 51.5112 46.1446 50.8094 46.1446Z" fill="black"/>
<path d="M30.4778 13.9066C34.3377 13.9066 37.4668 10.7935 37.4668 6.95329C37.4668 3.1131 34.3377 0 30.4778 0C26.6178 0 23.4888 3.1131 23.4888 6.95329C23.4888 10.7935 26.6178 13.9066 30.4778 13.9066Z" fill="black"/>
<path d="M0 80.2789V67.6441H2.69286V80.2789H0Z" fill="black"/>
<path d="M17.1739 80.2789H13.7514L8.22669 70.7207H8.14851C8.25853 72.4088 8.31355 73.6129 8.31355 74.3331V80.2789H5.90736V67.6441H9.30383L14.8198 77.1076H14.8806C14.7937 75.4656 14.7503 74.3046 14.7503 73.6247V67.6443H17.1739L17.1739 80.2789Z" fill="black"/>
<path d="M27.8581 76.7706C27.8581 77.9114 27.4441 78.8102 26.6159 79.467C25.7936 80.1238 24.647 80.4522 23.176 80.4522C21.8209 80.4522 20.6222 80.1987 19.5797 79.6917V77.2028C20.4368 77.583 21.1607 77.8509 21.7514 78.0065C22.3479 78.1621 22.8923 78.2398 23.3845 78.2398C23.9752 78.2398 24.4269 78.1275 24.7396 77.9028C25.0581 77.6781 25.2174 77.3439 25.2174 76.9003C25.2174 76.6526 25.1479 76.4336 25.0089 76.2435C24.8699 76.0476 24.6643 75.8604 24.3921 75.6817C24.1257 75.5031 23.5785 75.2179 22.7504 74.8262C21.9744 74.4632 21.3924 74.1146 21.0044 73.7805C20.6164 73.4463 20.3065 73.0574 20.0749 72.6138C19.8433 72.1701 19.7274 71.6516 19.7274 71.0582C19.7274 69.9405 20.1067 69.0619 20.8654 68.4223C21.6298 67.7828 22.6838 67.463 24.0273 67.463C24.6875 67.463 25.3158 67.5408 25.9123 67.6964C26.5146 67.8519 27.1429 68.0709 27.7973 68.3532L26.9286 70.436C26.2511 70.1594 25.6894 69.9664 25.2435 69.8569C24.8033 69.7475 24.369 69.6927 23.9405 69.6927C23.4309 69.6927 23.04 69.8108 22.7678 70.0471C22.4956 70.2833 22.3595 70.5915 22.3595 70.9718C22.3595 71.208 22.4145 71.4154 22.5246 71.594C22.6346 71.7669 22.8083 71.9368 23.0457 72.1039C23.289 72.2652 23.8594 72.5591 24.757 72.9854C25.9442 73.55 26.7578 74.1175 27.198 74.6879C27.6381 75.2525 27.8581 75.9467 27.8581 76.7706Z" fill="black"/>
<path d="M35.0594 80.2789H32.3665V69.8736H28.9179V67.644H38.5081V69.8736H35.0595L35.0594 80.2789Z" fill="black"/>
<path d="M40.4796 80.2789V67.6441H43.1725V80.2789H40.4796Z" fill="black"/>
<path d="M51.2859 80.2789H48.593V69.8736H45.1445V67.644H54.7347V69.8736H51.2861L51.2859 80.2789Z" fill="black"/>
<path d="M67.0429 67.6429V75.8187C67.0429 76.7521 66.8315 77.5702 66.4088 78.2731C65.9918 78.976 65.3867 79.5147 64.5933 79.8892C63.7999 80.2637 62.8618 80.4509 61.7788 80.4509C60.1457 80.4509 58.8775 80.0361 57.9741 79.2064C57.0707 78.371 56.619 77.2302 56.619 75.784V67.643H59.3031V75.3776C59.3031 76.3513 59.5 77.0657 59.8938 77.5209C60.2876 77.976 60.9391 78.2036 61.8483 78.2036C62.7286 78.2036 63.3656 77.976 63.7594 77.5209C64.159 77.0599 64.3588 76.3397 64.3588 75.3603V67.6428L67.0429 67.6429Z" fill="black"/>
<path d="M75.0548 80.2789H72.362V69.8736H68.9134V67.644H78.5036V69.8736H75.055L75.0548 80.2789Z" fill="black"/>
<path d="M92 73.9451C92 76.0365 91.4788 77.644 90.4364 78.7675C89.3941 79.891 87.9 80.4527 85.9541 80.4527C84.0083 80.4527 82.5142 79.891 81.4718 78.7675C80.4295 77.644 79.9083 76.0308 79.9083 73.9278C79.9083 71.8249 80.4295 70.2204 81.4718 69.1141C82.52 68.0022 84.0199 67.4462 85.9715 67.4462C87.9231 67.4462 89.4143 68.005 90.4451 69.1227C91.4817 70.2404 92 71.8479 92 73.9451ZM82.7313 73.9451C82.7313 75.3567 83.0006 76.4197 83.5392 77.1341C84.0778 77.8485 84.8827 78.2057 85.9541 78.2057C88.1026 78.2057 89.1768 76.7855 89.1768 73.9451C89.1768 71.0989 88.1084 69.6758 85.9715 69.6758C84.9001 69.6758 84.0923 70.0359 83.5479 70.7561C83.0035 71.4706 82.7313 72.5335 82.7313 73.9451Z" fill="black"/>
<path d="M11.5096 95.4497H8.86021V82.8149H16.1396V85.01H11.5096V88.2682H15.8181V90.4547H11.5096V95.4497Z" fill="black"/>
<path d="M25.9381 95.4497H18.6238V82.8149H25.9381V85.01H21.3168V87.7842H25.6167V89.9793H21.3168V93.2374H25.9381V95.4497Z" fill="black"/>
<path d="M39.1333 89.0085C39.1333 91.0884 38.5368 92.6814 37.3439 93.7876C36.1567 94.8939 34.4397 95.447 32.1927 95.447H28.5964V82.8122H32.5836C34.6568 82.8122 36.2667 83.3566 37.4134 84.4456C38.56 85.5345 39.1333 87.0553 39.1333 89.0085ZM36.3363 89.0776C36.3363 86.3639 35.1317 85.0071 32.7226 85.0071H31.2893V93.2347H32.4446C35.039 93.2347 36.3363 91.8489 36.3363 89.0776Z" fill="black"/>
<path d="M49.0793 95.4497H41.765V82.8149H49.0793V85.01H44.458V87.7842H48.7579V89.9793H44.458V93.2374H49.0793V95.4497Z" fill="black"/>
<path d="M54.4303 88.4206H55.299C56.1503 88.4206 56.7786 88.2794 57.184 87.9971C57.5894 87.7148 57.792 87.2712 57.792 86.6662C57.792 86.067 57.5836 85.6406 57.1666 85.3872C56.7555 85.1337 56.1155 85.0069 55.2469 85.0069H54.4303L54.4303 88.4206ZM54.4303 90.5984V95.4467H51.7375V82.8119H55.4379C57.1637 82.8119 58.4406 83.1259 59.2687 83.7539C60.0969 84.3762 60.5109 85.3239 60.5109 86.5972C60.5109 87.3404 60.3054 88.003 59.8942 88.5849C59.483 89.161 58.901 89.6133 58.1482 89.9417C60.0593 92.7821 61.3043 94.6171 61.8834 95.4468H58.8953L55.8636 90.5985L54.4303 90.5984Z" fill="black"/>
<path d="M71.2554 95.4497L70.3346 92.4422H65.7047L64.7839 95.4497H61.8826L66.3649 82.7631H69.6571L74.1567 95.4497H71.2554ZM69.6918 90.1953C68.8405 87.4701 68.3599 85.9289 68.2499 85.5717C68.1456 85.2145 68.0703 84.9322 68.024 84.7248C67.8329 85.4623 67.2856 87.2858 66.3822 90.1953L69.6918 90.1953Z" fill="black"/>
<path d="M75.7474 95.4497V82.8149H78.4402V93.2373H83.5914V95.4497H75.7474Z" fill="black"/>
<path d="M29.0699 106.91H32.3957V111.501C31.8967 111.67 31.3826 111.795 30.8532 111.877C30.3282 111.959 29.7402 112 29.0894 112C28.1001 112 27.2648 111.804 26.5836 111.411C25.9067 111.018 25.3925 110.459 25.0411 109.734C24.6896 109.004 24.5139 108.139 24.5139 107.137C24.5139 106.157 24.707 105.302 25.0931 104.573C25.4836 103.843 26.0455 103.278 26.7788 102.876C27.5165 102.471 28.4016 102.268 29.4343 102.268C29.9637 102.268 30.4649 102.317 30.9378 102.417C31.4151 102.512 31.8577 102.648 32.2656 102.825L31.8425 103.783C31.491 103.632 31.1027 103.502 30.6775 103.394C30.2566 103.286 29.8205 103.232 29.3692 103.232C28.5926 103.232 27.9265 103.392 27.3711 103.712C26.8201 104.031 26.397 104.482 26.102 105.065C25.8112 105.648 25.6659 106.338 25.6659 107.137C25.6659 107.927 25.7939 108.616 26.0499 109.203C26.3059 109.785 26.7051 110.239 27.2475 110.562C27.7898 110.886 28.4884 111.048 29.3432 111.048C29.7728 111.048 30.1416 111.024 30.4497 110.977C30.7577 110.925 31.0376 110.865 31.2893 110.796V107.895H29.0699V106.91Z" fill="black"/>
<path d="M40.6876 108.309C40.6876 108.892 40.6117 109.412 40.4598 109.87C40.3079 110.327 40.0888 110.714 39.8025 111.029C39.5161 111.344 39.169 111.586 38.7611 111.754C38.3576 111.918 37.8998 112 37.3878 112C36.9105 112 36.4722 111.918 36.0731 111.754C35.6782 111.586 35.3354 111.344 35.0447 111.029C34.7583 110.714 34.5349 110.327 34.3743 109.87C34.2181 109.412 34.14 108.892 34.14 108.309C34.14 107.532 34.2724 106.872 34.537 106.328C34.8017 105.779 35.1792 105.363 35.6695 105.078C36.1642 104.789 36.7521 104.644 37.4333 104.644C38.0842 104.644 38.6526 104.789 39.1386 105.078C39.6289 105.367 40.0086 105.786 40.2776 106.334C40.5509 106.878 40.6876 107.536 40.6876 108.309ZM35.2595 108.309C35.2595 108.879 35.3354 109.373 35.4873 109.792C35.6392 110.211 35.8735 110.534 36.1902 110.763C36.507 110.992 36.9148 111.106 37.4138 111.106C37.9085 111.106 38.3142 110.992 38.6309 110.763C38.952 110.534 39.1885 110.211 39.3403 109.792C39.4922 109.373 39.5681 108.879 39.5681 108.309C39.5681 107.744 39.4922 107.256 39.3403 106.846C39.1885 106.431 38.9542 106.112 38.6374 105.887C38.3207 105.663 37.9106 105.551 37.4073 105.551C36.6653 105.551 36.1208 105.795 35.7737 106.282C35.4309 106.77 35.2595 107.446 35.2595 108.309Z" fill="black"/>
<path d="M43.636 104.774V111.87H42.5556V104.774H43.636ZM43.1088 102.119C43.2867 102.119 43.4386 102.177 43.5644 102.294C43.6946 102.406 43.7596 102.583 43.7596 102.825C43.7596 103.062 43.6946 103.239 43.5644 103.355C43.4386 103.472 43.2867 103.53 43.1088 103.53C42.9222 103.53 42.766 103.472 42.6402 103.355C42.5187 103.239 42.4579 103.062 42.4579 102.825C42.4579 102.583 42.5187 102.406 42.6402 102.294C42.766 102.177 42.9222 102.119 43.1088 102.119Z" fill="black"/>
<path d="M48.5955 104.657C49.4459 104.657 50.0773 104.847 50.4895 105.227C50.9017 105.607 51.1078 106.213 51.1078 107.046V111.87H50.3203L50.112 110.821H50.0599C49.8603 111.081 49.6521 111.299 49.4351 111.476C49.2182 111.648 48.9665 111.78 48.6801 111.87C48.3981 111.957 48.051 112 47.6387 112C47.2048 112 46.8187 111.924 46.4802 111.773C46.1461 111.622 45.8814 111.393 45.6862 111.087C45.4953 110.78 45.3998 110.392 45.3998 109.921C45.3998 109.213 45.6818 108.67 46.2459 108.29C46.81 107.91 47.6691 107.703 48.8233 107.668L50.0534 107.616V107.182C50.0534 106.569 49.9211 106.14 49.6564 105.894C49.3917 105.648 49.0186 105.525 48.5369 105.525C48.1638 105.525 47.808 105.579 47.4695 105.687C47.1311 105.795 46.81 105.922 46.5063 106.069L46.1743 105.253C46.4954 105.089 46.8642 104.948 47.2808 104.832C47.6973 104.715 48.1356 104.657 48.5955 104.657ZM50.0404 108.374L48.9535 108.419C48.064 108.454 47.437 108.598 47.0725 108.853C46.708 109.108 46.5258 109.468 46.5258 109.934C46.5258 110.34 46.6494 110.64 46.8968 110.834C47.1441 111.029 47.4717 111.126 47.8796 111.126C48.5131 111.126 49.0316 110.951 49.4351 110.601C49.8386 110.252 50.0404 109.727 50.0404 109.028V108.374Z" fill="black"/>
<path d="M56.7117 104.644C57.5578 104.644 58.1978 104.851 58.6317 105.266C59.0656 105.676 59.2825 106.336 59.2825 107.247V111.87H58.2151V107.318C58.2151 106.727 58.0785 106.284 57.8051 105.991C57.5361 105.697 57.1217 105.551 56.562 105.551C55.7723 105.551 55.2169 105.773 54.8958 106.218C54.5747 106.662 54.4141 107.308 54.4141 108.154V111.87H53.3337V104.774H54.2059L54.3686 105.797H54.4272C54.579 105.546 54.7721 105.337 55.0064 105.169C55.2407 104.996 55.5032 104.866 55.794 104.78C56.0847 104.689 56.3906 104.644 56.7117 104.644Z" fill="black"/>
<path d="M67.659 108.309C67.659 108.892 67.5831 109.412 67.4312 109.87C67.2794 110.327 67.0603 110.714 66.7739 111.029C66.4875 111.344 66.1404 111.586 65.7325 111.754C65.329 111.918 64.8712 112 64.3592 112C63.8819 112 63.4437 111.918 63.0445 111.754C62.6496 111.586 62.3068 111.344 62.0161 111.029C61.7298 110.714 61.5063 110.327 61.3457 109.87C61.1895 109.412 61.1114 108.892 61.1114 108.309C61.1114 107.532 61.2438 106.872 61.5085 106.328C61.7731 105.779 62.1506 105.363 62.6409 105.078C63.1356 104.789 63.7235 104.644 64.4048 104.644C65.0556 104.644 65.624 104.789 66.11 105.078C66.6003 105.367 66.98 105.786 67.249 106.334C67.5224 106.878 67.659 107.536 67.659 108.309ZM62.2309 108.309C62.2309 108.879 62.3068 109.373 62.4587 109.792C62.6106 110.211 62.8449 110.534 63.1616 110.763C63.4784 110.992 63.8863 111.106 64.3852 111.106C64.8799 111.106 65.2856 110.992 65.6023 110.763C65.9234 110.534 66.1599 110.211 66.3118 109.792C66.4636 109.373 66.5396 108.879 66.5396 108.309C66.5396 107.744 66.4636 107.256 66.3118 106.846C66.1599 106.431 65.9256 106.112 65.6088 105.887C65.2921 105.663 64.8821 105.551 64.3787 105.551C63.6368 105.551 63.0922 105.795 62.7451 106.282C62.4023 106.77 62.2309 107.446 62.2309 108.309Z" fill="black"/>
</svg>
